<mxfile host="Electron" modified="2023-09-09T04:13:10.192Z" agent="Mozilla/5.0 (Windows NT 10.0; Win64; x64) AppleWebKit/537.36 (KHTML, like Gecko) draw.io/21.6.8 Chrome/114.0.5735.289 Electron/25.5.0 Safari/537.36" etag="wohgUq3iWvaya8cFNnrX" version="21.6.8" type="device">
  <diagram name="페이지-1" id="nSJE5dr3Jz2-BUb3ol3k">
    <mxGraphModel dx="863" dy="512" grid="1" gridSize="10" guides="1" tooltips="1" connect="1" arrows="1" fold="1" page="1" pageScale="1" pageWidth="1169" pageHeight="827" background="#ffffff" math="0" shadow="0">
      <root>
        <mxCell id="0" />
        <mxCell id="1" parent="0" />
        <mxCell id="qW6j6OMPyJmcw__A0nl--1" value="KT Cloud" style="swimlane;whiteSpace=wrap;html=1;fillColor=#f8cecc;strokeColor=#b85450;" parent="1" vertex="1">
          <mxGeometry x="460" y="34" width="500" height="336" as="geometry">
            <mxRectangle x="590" y="170" width="90" height="30" as="alternateBounds" />
          </mxGeometry>
        </mxCell>
        <mxCell id="6vJYyNS-QcvokfH6nar1-7" style="edgeStyle=orthogonalEdgeStyle;rounded=0;orthogonalLoop=1;jettySize=auto;html=1;exitX=0.5;exitY=1;exitDx=0;exitDy=0;entryX=0.5;entryY=0;entryDx=0;entryDy=0;startArrow=classic;startFill=1;" parent="qW6j6OMPyJmcw__A0nl--1" source="qW6j6OMPyJmcw__A0nl--3" target="6vJYyNS-QcvokfH6nar1-5" edge="1">
          <mxGeometry relative="1" as="geometry" />
        </mxCell>
        <mxCell id="qW6j6OMPyJmcw__A0nl--3" value="DB Server&lt;br&gt;(DBaaS for MariaDB)" style="rounded=0;whiteSpace=wrap;html=1;fillColor=#ffe6cc;strokeColor=#d79b00;" parent="qW6j6OMPyJmcw__A0nl--1" vertex="1">
          <mxGeometry x="360" y="38" width="120" height="60" as="geometry" />
        </mxCell>
        <mxCell id="qW6j6OMPyJmcw__A0nl--8" value="LAN" style="edgeStyle=orthogonalEdgeStyle;rounded=0;orthogonalLoop=1;jettySize=auto;html=1;entryX=0.5;entryY=1;entryDx=0;entryDy=0;startArrow=classic;startFill=1;" parent="qW6j6OMPyJmcw__A0nl--1" source="qW6j6OMPyJmcw__A0nl--7" target="qW6j6OMPyJmcw__A0nl--3" edge="1">
          <mxGeometry relative="1" as="geometry" />
        </mxCell>
        <mxCell id="qW6j6OMPyJmcw__A0nl--7" value="Was Server" style="rounded=0;whiteSpace=wrap;html=1;fillColor=#fa6800;strokeColor=#C73500;fontColor=#000000;" parent="qW6j6OMPyJmcw__A0nl--1" vertex="1">
          <mxGeometry x="360" y="146" width="120" height="60" as="geometry" />
        </mxCell>
        <mxCell id="aL52aqGwz-X5o8PIW7mi-3" value="Virtual Router" style="edgeStyle=orthogonalEdgeStyle;rounded=0;orthogonalLoop=1;jettySize=auto;html=1;" parent="qW6j6OMPyJmcw__A0nl--1" source="aL52aqGwz-X5o8PIW7mi-1" target="qW6j6OMPyJmcw__A0nl--7" edge="1">
          <mxGeometry relative="1" as="geometry" />
        </mxCell>
        <mxCell id="aL52aqGwz-X5o8PIW7mi-1" value="Load Balancer" style="rounded=0;whiteSpace=wrap;html=1;fillColor=#eeeeee;strokeColor=#36393d;" parent="qW6j6OMPyJmcw__A0nl--1" vertex="1">
          <mxGeometry x="360" y="258" width="120" height="60" as="geometry" />
        </mxCell>
        <mxCell id="aL52aqGwz-X5o8PIW7mi-5" value="Test Server" style="rounded=1;whiteSpace=wrap;html=1;fillColor=#fa6800;strokeColor=#C73500;fontColor=#000000;" parent="qW6j6OMPyJmcw__A0nl--1" vertex="1">
          <mxGeometry x="21" y="146" width="120" height="60" as="geometry" />
        </mxCell>
        <mxCell id="aL52aqGwz-X5o8PIW7mi-8" value="Test DB Server&lt;br&gt;(DBaaS for MariaDB)" style="rounded=1;whiteSpace=wrap;html=1;fillColor=#ffe6cc;strokeColor=#d79b00;" parent="qW6j6OMPyJmcw__A0nl--1" vertex="1">
          <mxGeometry x="21" y="38" width="120" height="60" as="geometry" />
        </mxCell>
        <mxCell id="aL52aqGwz-X5o8PIW7mi-11" value="LAN" style="edgeStyle=orthogonalEdgeStyle;rounded=0;orthogonalLoop=1;jettySize=auto;html=1;entryX=0.5;entryY=1;entryDx=0;entryDy=0;startArrow=classic;startFill=1;exitX=0.5;exitY=0;exitDx=0;exitDy=0;" parent="qW6j6OMPyJmcw__A0nl--1" source="aL52aqGwz-X5o8PIW7mi-5" target="aL52aqGwz-X5o8PIW7mi-8" edge="1">
          <mxGeometry relative="1" as="geometry">
            <mxPoint x="281" y="162" as="sourcePoint" />
            <mxPoint x="281" y="108" as="targetPoint" />
          </mxGeometry>
        </mxCell>
        <mxCell id="6vJYyNS-QcvokfH6nar1-14" value="OS Image" style="edgeStyle=orthogonalEdgeStyle;rounded=0;orthogonalLoop=1;jettySize=auto;html=1;exitX=1;exitY=0.5;exitDx=0;exitDy=0;entryX=0;entryY=0.5;entryDx=0;entryDy=0;" parent="qW6j6OMPyJmcw__A0nl--1" source="6vJYyNS-QcvokfH6nar1-5" target="qW6j6OMPyJmcw__A0nl--7" edge="1">
          <mxGeometry x="-0.1429" relative="1" as="geometry">
            <Array as="points">
              <mxPoint x="320" y="176" />
              <mxPoint x="320" y="176" />
            </Array>
            <mxPoint as="offset" />
          </mxGeometry>
        </mxCell>
        <mxCell id="6vJYyNS-QcvokfH6nar1-5" value="Staging Server" style="rounded=1;whiteSpace=wrap;html=1;fillColor=#fa6800;strokeColor=#C73500;fontColor=#000000;" parent="qW6j6OMPyJmcw__A0nl--1" vertex="1">
          <mxGeometry x="170" y="146" width="120" height="60" as="geometry" />
        </mxCell>
        <mxCell id="csXgeGX4mDaDeYBvriKt-2" value="Push" style="edgeStyle=orthogonalEdgeStyle;rounded=0;orthogonalLoop=1;jettySize=auto;html=1;entryX=0.5;entryY=0;entryDx=0;entryDy=0;" parent="1" source="qW6j6OMPyJmcw__A0nl--9" target="csXgeGX4mDaDeYBvriKt-1" edge="1">
          <mxGeometry relative="1" as="geometry" />
        </mxCell>
        <mxCell id="qW6j6OMPyJmcw__A0nl--9" value="Development&lt;br&gt;(Local)" style="rounded=0;whiteSpace=wrap;html=1;fillColor=#dae8fc;strokeColor=#6c8ebf;" parent="1" vertex="1">
          <mxGeometry x="319" y="70" width="120" height="60" as="geometry" />
        </mxCell>
        <mxCell id="6vJYyNS-QcvokfH6nar1-11" value="Docker Push" style="edgeStyle=orthogonalEdgeStyle;rounded=0;orthogonalLoop=1;jettySize=auto;html=1;entryX=0.5;entryY=0;entryDx=0;entryDy=0;" parent="1" source="csXgeGX4mDaDeYBvriKt-1" target="6vJYyNS-QcvokfH6nar1-8" edge="1">
          <mxGeometry relative="1" as="geometry">
            <mxPoint as="offset" />
          </mxGeometry>
        </mxCell>
        <mxCell id="csXgeGX4mDaDeYBvriKt-1" value="Build Tool&lt;br&gt;(Github Action)" style="rounded=0;whiteSpace=wrap;html=1;fillColor=#d5e8d4;strokeColor=#82b366;" parent="1" vertex="1">
          <mxGeometry x="319" y="180" width="120" height="60" as="geometry" />
        </mxCell>
        <mxCell id="aL52aqGwz-X5o8PIW7mi-13" value="" style="edgeStyle=orthogonalEdgeStyle;rounded=0;orthogonalLoop=1;jettySize=auto;html=1;" parent="1" source="aL52aqGwz-X5o8PIW7mi-12" target="aL52aqGwz-X5o8PIW7mi-1" edge="1">
          <mxGeometry relative="1" as="geometry" />
        </mxCell>
        <mxCell id="aL52aqGwz-X5o8PIW7mi-15" value="HTTP" style="edgeLabel;html=1;align=center;verticalAlign=middle;resizable=0;points=[];" parent="aL52aqGwz-X5o8PIW7mi-13" vertex="1" connectable="0">
          <mxGeometry x="-0.0609" y="-1" relative="1" as="geometry">
            <mxPoint as="offset" />
          </mxGeometry>
        </mxCell>
        <mxCell id="aL52aqGwz-X5o8PIW7mi-12" value="User" style="shape=umlActor;verticalLabelPosition=bottom;verticalAlign=top;html=1;outlineConnect=0;" parent="1" vertex="1">
          <mxGeometry x="1000" y="292" width="30" height="60" as="geometry" />
        </mxCell>
        <mxCell id="6vJYyNS-QcvokfH6nar1-9" style="edgeStyle=orthogonalEdgeStyle;rounded=0;orthogonalLoop=1;jettySize=auto;html=1;entryX=0.5;entryY=1;entryDx=0;entryDy=0;" parent="1" source="6vJYyNS-QcvokfH6nar1-8" target="aL52aqGwz-X5o8PIW7mi-5" edge="1">
          <mxGeometry relative="1" as="geometry" />
        </mxCell>
        <mxCell id="6vJYyNS-QcvokfH6nar1-10" value="" style="edgeStyle=orthogonalEdgeStyle;rounded=0;orthogonalLoop=1;jettySize=auto;html=1;exitX=1;exitY=0.5;exitDx=0;exitDy=0;entryX=0.5;entryY=1;entryDx=0;entryDy=0;" parent="1" source="6vJYyNS-QcvokfH6nar1-8" target="6vJYyNS-QcvokfH6nar1-5" edge="1">
          <mxGeometry x="-0.3148" y="2" relative="1" as="geometry">
            <mxPoint as="offset" />
          </mxGeometry>
        </mxCell>
        <mxCell id="6vJYyNS-QcvokfH6nar1-12" value="Pull" style="edgeLabel;html=1;align=center;verticalAlign=middle;resizable=0;points=[];" parent="6vJYyNS-QcvokfH6nar1-10" vertex="1" connectable="0">
          <mxGeometry x="-0.063" relative="1" as="geometry">
            <mxPoint x="-50" as="offset" />
          </mxGeometry>
        </mxCell>
        <mxCell id="6vJYyNS-QcvokfH6nar1-8" value="Docker Hub" style="rounded=0;whiteSpace=wrap;html=1;fillColor=#b0e3e6;strokeColor=#0e8088;" parent="1" vertex="1">
          <mxGeometry x="319" y="292" width="120" height="60" as="geometry" />
        </mxCell>
      </root>
    </mxGraphModel>
  </diagram>
</mxfile>
